<svg width="24" height="24" viewBox="0 0 24 24" fill="none" xmlns="http://www.w3.org/2000/svg">
<path d="M8.98019 2.95896L20.4102 11.3965C20.4999 11.4694 20.5723 11.5614 20.622 11.6658C20.6717 11.7702 20.6975 11.8844 20.6975 12C20.6975 12.1156 20.6717 12.2298 20.622 12.3342C20.5723 12.4386 20.4999 12.5306 20.4102 12.6035L8.98019 21.041C8.29329 21.2944 7.89672 21.1014 7.79047 20.462L18.438 12.6035C18.5277 12.5306 18.6001 12.4386 18.6498 12.3342C18.6995 12.2298 18.7253 12.1156 18.7253 12C18.7253 11.8844 18.6995 11.7702 18.6498 11.6658C18.6001 11.5614 18.5277 11.4694 18.438 11.3965L7.79489 3.54126C7.80196 3.40685 7.84477 3.27676 7.91891 3.16442C7.99304 3.05208 8.09582 2.96156 8.21663 2.90221C8.33744 2.84286 8.4719 2.81683 8.60612 2.82681C8.74035 2.83678 8.86949 2.88241 8.98019 2.95896ZM4.48094 21.0403L7.27657 18.9769L8.97104 17.7259L15.912 12.6034C16.0065 12.5337 16.0832 12.4428 16.1362 12.338C16.1891 12.2332 16.2166 12.1174 16.2166 12C16.2166 11.8826 16.1891 11.7668 16.1362 11.662C16.0832 11.5572 16.0065 11.4663 15.912 11.3965L8.97089 6.27359L7.27657 5.02304L4.48094 2.95971L4.48004 2.95874C4.34509 2.86482 4.1832 2.81747 4.01891 2.82388C3.85462 2.83028 3.6969 2.8901 3.56968 2.99424C3.44245 3.09839 3.35266 3.24118 3.31393 3.40097C3.27519 3.56076 3.28963 3.72882 3.35504 3.87966L7.14479 12L3.35527 20.1203C3.30886 20.2196 3.28484 20.3279 3.28492 20.4375C3.28723 20.5753 3.32714 20.7099 3.40034 20.8266C3.47354 20.9434 3.57725 21.038 3.70027 21.1001C3.82329 21.1623 3.96096 21.1896 4.09839 21.1793C4.23583 21.1689 4.36782 21.1212 4.48012 21.0412L4.48094 21.0403Z" fill="#605BFF"/>
</svg>
